<mxfile host="app.diagrams.net" modified="2021-10-06T21:11:27.241Z" agent="5.0 (Windows NT 10.0; Win64; x64) AppleWebKit/537.36 (KHTML, like Gecko) Chrome/94.0.4606.71 Safari/537.36" etag="PMXxjggOMYXLepZVqHAX" version="15.4.3" type="github">
  <diagram id="C5RBs43oDa-KdzZeNtuy" name="Page-1">
    <mxGraphModel dx="1422" dy="882" grid="1" gridSize="10" guides="1" tooltips="1" connect="1" arrows="1" fold="1" page="1" pageScale="1" pageWidth="827" pageHeight="1169" math="0" shadow="0">
      <root>
        <mxCell id="WIyWlLk6GJQsqaUBKTNV-0" />
        <mxCell id="WIyWlLk6GJQsqaUBKTNV-1" parent="WIyWlLk6GJQsqaUBKTNV-0" />
        <mxCell id="RJs0f2C64y_1TUhJ2Cbi-15" value="Buy Item" style="swimlane;" vertex="1" parent="WIyWlLk6GJQsqaUBKTNV-1">
          <mxGeometry x="120" y="20" width="640" height="680" as="geometry" />
        </mxCell>
        <mxCell id="RJs0f2C64y_1TUhJ2Cbi-18" style="edgeStyle=none;rounded=0;orthogonalLoop=1;jettySize=auto;html=1;exitX=0.5;exitY=1;exitDx=0;exitDy=0;entryX=0.5;entryY=0;entryDx=0;entryDy=0;endArrow=block;endFill=0;endSize=8;" edge="1" parent="RJs0f2C64y_1TUhJ2Cbi-15" source="RJs0f2C64y_1TUhJ2Cbi-17" target="WIyWlLk6GJQsqaUBKTNV-10">
          <mxGeometry relative="1" as="geometry" />
        </mxCell>
        <mxCell id="RJs0f2C64y_1TUhJ2Cbi-17" value="Input Delivery Address" style="rounded=1;whiteSpace=wrap;html=1;fontSize=12;glass=0;strokeWidth=1;shadow=0;" vertex="1" parent="RJs0f2C64y_1TUhJ2Cbi-15">
          <mxGeometry x="50" y="150" width="120" height="40" as="geometry" />
        </mxCell>
        <mxCell id="WIyWlLk6GJQsqaUBKTNV-10" value="Express Delivery" style="rhombus;whiteSpace=wrap;html=1;shadow=0;fontFamily=Helvetica;fontSize=12;align=center;strokeWidth=1;spacing=6;spacingTop=-4;" parent="RJs0f2C64y_1TUhJ2Cbi-15" vertex="1">
          <mxGeometry x="60" y="240" width="100" height="80" as="geometry" />
        </mxCell>
        <mxCell id="RJs0f2C64y_1TUhJ2Cbi-21" style="edgeStyle=none;rounded=0;orthogonalLoop=1;jettySize=auto;html=1;exitX=0.5;exitY=1;exitDx=0;exitDy=0;entryX=0.5;entryY=0;entryDx=0;entryDy=0;endArrow=block;endFill=0;endSize=8;" edge="1" parent="RJs0f2C64y_1TUhJ2Cbi-15" source="WIyWlLk6GJQsqaUBKTNV-12" target="RJs0f2C64y_1TUhJ2Cbi-20">
          <mxGeometry relative="1" as="geometry" />
        </mxCell>
        <mxCell id="WIyWlLk6GJQsqaUBKTNV-12" value="€10 shipping cost&lt;br&gt;2 day shipping" style="rounded=1;whiteSpace=wrap;html=1;fontSize=12;glass=0;strokeWidth=1;shadow=0;" parent="RJs0f2C64y_1TUhJ2Cbi-15" vertex="1">
          <mxGeometry x="220" y="260" width="150" height="40" as="geometry" />
        </mxCell>
        <mxCell id="WIyWlLk6GJQsqaUBKTNV-9" value="Yes" style="edgeStyle=orthogonalEdgeStyle;rounded=0;html=1;jettySize=auto;orthogonalLoop=1;fontSize=11;endArrow=block;endFill=0;endSize=8;strokeWidth=1;shadow=0;labelBackgroundColor=none;" parent="RJs0f2C64y_1TUhJ2Cbi-15" source="WIyWlLk6GJQsqaUBKTNV-10" target="WIyWlLk6GJQsqaUBKTNV-12" edge="1">
          <mxGeometry y="10" relative="1" as="geometry">
            <mxPoint as="offset" />
          </mxGeometry>
        </mxCell>
        <mxCell id="WIyWlLk6GJQsqaUBKTNV-11" value="€5 shipping cost&lt;br&gt;5 day shipping" style="rounded=1;whiteSpace=wrap;html=1;fontSize=12;glass=0;strokeWidth=1;shadow=0;" parent="RJs0f2C64y_1TUhJ2Cbi-15" vertex="1">
          <mxGeometry x="50" y="370" width="120" height="40" as="geometry" />
        </mxCell>
        <mxCell id="WIyWlLk6GJQsqaUBKTNV-8" value="No" style="rounded=0;html=1;jettySize=auto;orthogonalLoop=1;fontSize=11;endArrow=block;endFill=0;endSize=8;strokeWidth=1;shadow=0;labelBackgroundColor=none;edgeStyle=orthogonalEdgeStyle;" parent="RJs0f2C64y_1TUhJ2Cbi-15" source="WIyWlLk6GJQsqaUBKTNV-10" target="WIyWlLk6GJQsqaUBKTNV-11" edge="1">
          <mxGeometry x="0.3333" y="20" relative="1" as="geometry">
            <mxPoint as="offset" />
          </mxGeometry>
        </mxCell>
        <mxCell id="RJs0f2C64y_1TUhJ2Cbi-24" value="Yes" style="edgeStyle=none;rounded=0;orthogonalLoop=1;jettySize=auto;html=1;exitX=1;exitY=0.5;exitDx=0;exitDy=0;endArrow=block;endFill=0;endSize=8;" edge="1" parent="RJs0f2C64y_1TUhJ2Cbi-15" source="RJs0f2C64y_1TUhJ2Cbi-20" target="RJs0f2C64y_1TUhJ2Cbi-23">
          <mxGeometry relative="1" as="geometry" />
        </mxCell>
        <mxCell id="RJs0f2C64y_1TUhJ2Cbi-26" value="No" style="edgeStyle=none;rounded=0;orthogonalLoop=1;jettySize=auto;html=1;exitX=0.5;exitY=1;exitDx=0;exitDy=0;entryX=0.5;entryY=0;entryDx=0;entryDy=0;endArrow=block;endFill=0;endSize=8;" edge="1" parent="RJs0f2C64y_1TUhJ2Cbi-15" source="RJs0f2C64y_1TUhJ2Cbi-20" target="RJs0f2C64y_1TUhJ2Cbi-25">
          <mxGeometry relative="1" as="geometry" />
        </mxCell>
        <mxCell id="RJs0f2C64y_1TUhJ2Cbi-20" value="Using &lt;br&gt;External Payment &lt;br&gt;Company" style="rhombus;whiteSpace=wrap;html=1;" vertex="1" parent="RJs0f2C64y_1TUhJ2Cbi-15">
          <mxGeometry x="237" y="339" width="115" height="100" as="geometry" />
        </mxCell>
        <mxCell id="RJs0f2C64y_1TUhJ2Cbi-28" style="edgeStyle=none;rounded=0;orthogonalLoop=1;jettySize=auto;html=1;exitX=0.5;exitY=1;exitDx=0;exitDy=0;entryX=0.5;entryY=0;entryDx=0;entryDy=0;endArrow=block;endFill=0;endSize=8;" edge="1" parent="RJs0f2C64y_1TUhJ2Cbi-15" source="RJs0f2C64y_1TUhJ2Cbi-23" target="RJs0f2C64y_1TUhJ2Cbi-27">
          <mxGeometry relative="1" as="geometry" />
        </mxCell>
        <mxCell id="RJs0f2C64y_1TUhJ2Cbi-23" value="Login to External Payment Company" style="rounded=1;whiteSpace=wrap;html=1;" vertex="1" parent="RJs0f2C64y_1TUhJ2Cbi-15">
          <mxGeometry x="410" y="359" width="120" height="60" as="geometry" />
        </mxCell>
        <mxCell id="RJs0f2C64y_1TUhJ2Cbi-29" style="edgeStyle=none;rounded=0;orthogonalLoop=1;jettySize=auto;html=1;exitX=1;exitY=0.5;exitDx=0;exitDy=0;entryX=0;entryY=0.5;entryDx=0;entryDy=0;endArrow=block;endFill=0;endSize=8;" edge="1" parent="RJs0f2C64y_1TUhJ2Cbi-15" source="RJs0f2C64y_1TUhJ2Cbi-25" target="RJs0f2C64y_1TUhJ2Cbi-27">
          <mxGeometry relative="1" as="geometry" />
        </mxCell>
        <mxCell id="RJs0f2C64y_1TUhJ2Cbi-25" value="Input Credit Card Details" style="rounded=1;whiteSpace=wrap;html=1;" vertex="1" parent="RJs0f2C64y_1TUhJ2Cbi-15">
          <mxGeometry x="235" y="480" width="120" height="60" as="geometry" />
        </mxCell>
        <mxCell id="RJs0f2C64y_1TUhJ2Cbi-22" style="edgeStyle=none;rounded=0;orthogonalLoop=1;jettySize=auto;html=1;exitX=1;exitY=0.5;exitDx=0;exitDy=0;endArrow=block;endFill=0;endSize=8;entryX=0;entryY=0.5;entryDx=0;entryDy=0;" edge="1" parent="RJs0f2C64y_1TUhJ2Cbi-15" source="WIyWlLk6GJQsqaUBKTNV-11" target="RJs0f2C64y_1TUhJ2Cbi-20">
          <mxGeometry relative="1" as="geometry">
            <mxPoint x="250" y="390" as="targetPoint" />
          </mxGeometry>
        </mxCell>
        <mxCell id="WIyWlLk6GJQsqaUBKTNV-3" value="Items in Cart" style="rounded=1;whiteSpace=wrap;html=1;fontSize=12;glass=0;strokeWidth=1;shadow=0;" parent="RJs0f2C64y_1TUhJ2Cbi-15" vertex="1">
          <mxGeometry x="50" y="60" width="120" height="40" as="geometry" />
        </mxCell>
        <mxCell id="WIyWlLk6GJQsqaUBKTNV-2" value="" style="rounded=0;html=1;jettySize=auto;orthogonalLoop=1;fontSize=11;endArrow=block;endFill=0;endSize=8;strokeWidth=1;shadow=0;labelBackgroundColor=none;entryX=0.5;entryY=0;entryDx=0;entryDy=0;" parent="RJs0f2C64y_1TUhJ2Cbi-15" source="WIyWlLk6GJQsqaUBKTNV-3" target="RJs0f2C64y_1TUhJ2Cbi-17" edge="1">
          <mxGeometry relative="1" as="geometry">
            <mxPoint x="110" y="140" as="targetPoint" />
          </mxGeometry>
        </mxCell>
        <mxCell id="RJs0f2C64y_1TUhJ2Cbi-27" value="Exit to Authorising Payment" style="rounded=1;whiteSpace=wrap;html=1;" vertex="1" parent="RJs0f2C64y_1TUhJ2Cbi-15">
          <mxGeometry x="410" y="480" width="120" height="60" as="geometry" />
        </mxCell>
      </root>
    </mxGraphModel>
  </diagram>
</mxfile>
